<?xml version="1.0" encoding="UTF-8" standalone="no"?>
<!-- Created with Inkscape (http://www.inkscape.org/) -->

<svg
   width="150"
   height="100"
   viewBox="0 0 39.6875 26.458333"
   version="1.1"
   id="svg1"
   inkscape:version="1.4 (86a8ad7, 2024-10-11)"
   sodipodi:docname="logo.svg"
   xmlns:inkscape="http://www.inkscape.org/namespaces/inkscape"
   xmlns:sodipodi="http://sodipodi.sourceforge.net/DTD/sodipodi-0.dtd"
   xmlns:xlink="http://www.w3.org/1999/xlink"
   xmlns="http://www.w3.org/2000/svg"
   xmlns:svg="http://www.w3.org/2000/svg">
  <sodipodi:namedview
     id="namedview1"
     pagecolor="#ffffff"
     bordercolor="#000000"
     borderopacity="0.25"
     inkscape:showpageshadow="2"
     inkscape:pageopacity="0.0"
     inkscape:pagecheckerboard="0"
     inkscape:deskcolor="#d1d1d1"
     inkscape:document-units="mm"
     inkscape:zoom="2.3232521"
     inkscape:cx="81.136264"
     inkscape:cy="52.29738"
     inkscape:window-width="1920"
     inkscape:window-height="974"
     inkscape:window-x="-11"
     inkscape:window-y="-11"
     inkscape:window-maximized="1"
     inkscape:current-layer="layer1" />
  <defs
     id="defs1">
    <linearGradient
       id="swatch45"
       inkscape:swatch="solid">
      <stop
         style="stop-color:#000000;stop-opacity:1;"
         offset="0"
         id="stop45" />
    </linearGradient>
  </defs>
  <g
     inkscape:label="Sloj 1"
     inkscape:groupmode="layer"
     id="layer1">
    <path
       id="path1"
       style="mix-blend-mode:screen;fill:#efce63;stroke:none;opacity:1;stroke-linecap:round;stroke-linejoin:round;stroke-dasharray:2, 6;stroke-dashoffset:0;fill-opacity:0.73156345"
       d="m 19.4014,5.7836263 a 7.1433187,7.1433187 0 0 0 -7.143233,7.1432337 7.1433187,7.1433187 0 0 0 7.143233,7.143233 7.1433187,7.1433187 0 0 0 2.838586,-0.59738 c 0.0072,-0.0044 0.01459,-0.0084 0.0217,-0.01292 0.141816,-0.08325 0.278569,-0.175711 0.425297,-0.250631 0.134646,-0.08011 0.26926,-0.160134 0.408244,-0.232544 0.004,-0.0023 0.0079,-0.0049 0.01189,-0.0072 0.05415,-0.04791 0.106709,-0.09796 0.159163,-0.147795 0.02462,-0.0216 0.04991,-0.04223 0.07545,-0.06253 0.05662,-0.09479 0.112865,-0.189785 0.171049,-0.283704 0.104076,-0.154725 0.198787,-0.315012 0.265617,-0.489376 0.0655,-0.1864 0.101731,-0.38009 0.129191,-0.575158 0.02255,-0.165375 0.03435,-0.331879 0.02945,-0.498678 -0.0047,-0.112199 -0.06203,-0.209152 -0.109037,-0.307992 -0.02355,-0.04355 -0.03861,-0.12267 -0.09353,-0.14211 -0.05279,-0.047 -0.116701,-0.06156 -0.181901,-0.08216 -0.140763,-0.04068 -0.264965,-0.11912 -0.398426,-0.17725 -0.107193,-0.04559 -0.222277,-0.06699 -0.33383,-0.0987 -0.142002,-0.0415 -0.275751,-0.103854 -0.411861,-0.160714 -0.132712,-0.05682 -0.26049,-0.1235 -0.387573,-0.19172 -0.156524,-0.0663 -0.299528,-0.156704 -0.438733,-0.253214 -0.146415,-0.095 -0.260464,-0.225046 -0.357084,-0.368453 -0.115791,-0.163153 -0.188016,-0.346717 -0.243396,-0.537435 -0.04131,-0.152027 -0.07053,-0.305848 -0.06253,-0.463538 0.01968,-0.174844 0.126386,-0.301424 0.248046,-0.418579 0.148601,-0.118228 0.301695,-0.232401 0.458887,-0.338997 0.253015,-0.159901 0.483744,-0.191519 0.776697,-0.188619 0.05772,0.0034 0.114697,0.01209 0.172082,0.01809 0.08299,-0.02214 0.167571,-0.03644 0.253732,-0.03514 0.01552,2.34e-4 0.03088,7.24e-4 0.04651,0.0021 0.114344,0.0024 0.229288,0.0047 0.343131,0.01654 0.104075,0.01231 0.207555,0.02949 0.305925,0.06718 0.07549,0.02689 0.150756,0.0533 0.225826,0.08113 0.09043,0.03389 0.184223,0.0597 0.263033,0.118855 0.02365,0.01578 0.04841,0.03003 0.07338,0.04392 0.282469,0.109329 0.565546,0.217639 0.851628,0.317294 0.232037,0.08493 0.472686,0.135718 0.716752,0.169498 0.08863,0.01111 0.177539,0.01865 0.26665,0.02429 0.04241,-0.01503 0.08467,-0.02992 0.126091,-0.04806 0.06194,-0.02758 0.121626,-0.05899 0.18035,-0.09198 0.01734,-0.02185 0.03474,-0.04356 0.05116,-0.06615 0.07442,-0.106817 0.150107,-0.212793 0.226343,-0.318327 A 7.1433187,7.1433187 0 0 0 26.544633,12.92686 7.1433187,7.1433187 0 0 0 19.4014,5.7836263 Z m 2.956408,4.0142253 a 1.0790511,0.90640289 0 0 1 1.079004,0.9064044 1.0790511,0.90640289 0 0 1 -1.079004,0.906405 1.0790511,0.90640289 0 0 1 -1.079003,-0.906405 1.0790511,0.90640289 0 0 1 1.079003,-0.9064044 z m -0.722436,4.3738934 c -0.0018,5.28e-4 -0.0023,0.0029 -0.0036,0.0041 3.77e-4,3.25e-4 8.87e-4,9.38e-4 10e-4,10e-4 l 5.17e-4,5.17e-4 c 4.91e-4,-0.0021 0.002,-0.0031 0.0021,-0.0057 z m 2.94814,2.31407 c -0.01876,0.01871 -0.03835,0.03372 -0.05839,0.04496 0.0037,0.01923 0.0098,0.03805 0.01292,0.05736 0.005,-0.01172 0.01113,-0.02284 0.01602,-0.03462 0.0093,-0.02278 0.01986,-0.04506 0.02945,-0.0677 z" />
    <ellipse
       style="fill:#f68989;fill-opacity:1;stroke-width:0.264583"
       id="path2"
       cx="19.336596"
       cy="8.5460854"
       rx="1.0790511"
       ry="0.90640289" />
    <ellipse
       style="fill:#00dbdb;fill-opacity:1;stroke-width:0.264583"
       id="ellipse2"
       cx="16.099442"
       cy="10.531539"
       rx="1.0790511"
       ry="0.90640289" />
    <ellipse
       style="fill:#ffd42a;fill-opacity:1;stroke-width:0.264583"
       id="ellipse3"
       cx="15.495173"
       cy="13.811855"
       rx="1.0790511"
       ry="0.90640289" />
    <text
       xml:space="preserve"
       style="font-size:3.175px;text-align:start;writing-mode:lr-tb;direction:ltr;text-anchor:start;opacity:1;fill:none;fill-opacity:1;stroke:none;stroke-width:0.264583;stroke-linecap:round;stroke-linejoin:round;stroke-dasharray:2, 6.00001;stroke-dashoffset:0"
       x="23.264341"
       y="11.61059"
       id="text61"><tspan
         sodipodi:role="line"
         id="tspan61"
         style="stroke-width:0.264583"
         x="23.264341"
         y="11.61059">G</tspan></text>
    <text
       xml:space="preserve"
       style="font-style:normal;font-variant:normal;font-weight:normal;font-stretch:normal;font-size:1.50052px;font-family:Arial;-inkscape-font-specification:'Arial, Normal';font-variant-ligatures:normal;font-variant-caps:normal;font-variant-numeric:normal;font-variant-east-asian:normal;text-align:start;writing-mode:lr-tb;direction:ltr;text-anchor:start;opacity:1;fill:#008080;fill-opacity:1;stroke:none;stroke-width:0.125043;stroke-linecap:round;stroke-linejoin:round;stroke-dasharray:0.945212, 2.83564;stroke-dashoffset:0"
       id="text62"
       transform="matrix(0.15339104,-1.0018131,1.0018131,0.15339104,2.3867886,31.169907)"><textPath
         xlink:href="#path1"
         id="textPath63"><tspan
           id="tspan62"
           style="font-style:normal;font-variant:normal;font-weight:normal;font-stretch:normal;font-size:1.50052px;font-family:Arial;-inkscape-font-specification:'Arial, Normal';font-variant-ligatures:normal;font-variant-caps:normal;font-variant-numeric:normal;font-variant-east-asian:normal;fill:#00a6a6;fill-opacity:0.785489;stroke-width:0.125043">Galerija Smokvina</tspan></textPath></text>
    <text
       xml:space="preserve"
       style="font-style:normal;font-variant:normal;font-weight:normal;font-stretch:normal;font-size:1.50052px;font-family:Arial;-inkscape-font-specification:'Arial, Normal';font-variant-ligatures:normal;font-variant-caps:normal;font-variant-numeric:normal;font-variant-east-asian:normal;text-align:start;writing-mode:lr-tb;direction:ltr;text-anchor:start;opacity:1;fill:#008080;fill-opacity:1;stroke:none;stroke-width:0.125043;stroke-linecap:round;stroke-linejoin:round;stroke-dasharray:0.945212, 2.83564;stroke-dashoffset:0"
       id="text64"
       transform="matrix(1.0098547,0.08574219,-0.08574219,1.0098547,-0.03728979,-2.9167235)"><textPath
         xlink:href="#path1"
         id="textPath64"><tspan
           id="tspan63"
           style="font-style:normal;font-variant:normal;font-weight:normal;font-stretch:normal;font-size:1.50052px;font-family:Arial;-inkscape-font-specification:'Arial, Normal';font-variant-ligatures:normal;font-variant-caps:normal;font-variant-numeric:normal;font-variant-east-asian:normal;fill:#00a6a6;fill-opacity:0.785489;stroke-width:0.125043">Galerija Smokvina</tspan></textPath></text>
    <text
       xml:space="preserve"
       style="font-style:normal;font-variant:normal;font-weight:normal;font-stretch:normal;font-size:1.50052px;font-family:Arial;-inkscape-font-specification:'Arial, Normal';font-variant-ligatures:normal;font-variant-caps:normal;font-variant-numeric:normal;font-variant-east-asian:normal;text-align:start;writing-mode:lr-tb;direction:ltr;text-anchor:start;opacity:1;fill:#008080;fill-opacity:1;stroke:none;stroke-width:0.125043;stroke-linecap:round;stroke-linejoin:round;stroke-dasharray:0.945212, 2.83564;stroke-dashoffset:0"
       id="text65"
       transform="matrix(0.00179842,1.0134865,-1.0134865,0.00179842,33.538506,-7.8197038)"><textPath
         xlink:href="#path1"
         id="textPath65"><tspan
           id="tspan64"
           style="font-style:normal;font-variant:normal;font-weight:normal;font-stretch:normal;font-size:1.50052px;font-family:Arial;-inkscape-font-specification:'Arial, Normal';font-variant-ligatures:normal;font-variant-caps:normal;font-variant-numeric:normal;font-variant-east-asian:normal;fill:#00a6a6;fill-opacity:0.785489;stroke-width:0.125043">Galerija Smokvina</tspan></textPath></text>
    <ellipse
       style="fill:#94ff2a;fill-opacity:1;stroke-width:0.264583"
       id="ellipse65"
       cx="17.394302"
       cy="16.703712"
       rx="1.0790511"
       ry="0.90640289" />
  </g>
</svg>
